<svg width="35" height="35" viewBox="0 0 35 35" fill="none" xmlns="http://www.w3.org/2000/svg">
<path d="M14.6551 17.675C15.8259 14.7188 17.9698 12.4184 20.6153 11.2796C23.2608 10.1408 26.1914 10.257 28.7624 11.6025C31.3332 12.9488 33.3337 15.4141 34.3239 18.4563C35.3142 21.4985 35.2132 24.8684 34.0431 27.825C33.1994 29.9671 31.8358 31.7836 30.1162 33.0563C28.3966 34.3291 26.3941 35.004 24.3491 35C20.2402 35 16.4813 32.27 14.716 28H0V24.5C0.0913093 22.505 1.27833 20.8775 3.56106 19.565C5.84379 18.2525 8.70482 17.57 12.1746 17.5C13.042 17.5 13.8638 17.5875 14.6551 17.675ZM12.1746 0C13.879 0.0525 15.3095 0.735 16.4509 2.0475C17.5923 3.36 18.1553 5.005 18.1553 7C18.1553 8.995 17.5923 10.64 16.4509 11.9525C15.3095 13.265 13.879 13.9125 12.1746 13.9125C10.4701 13.9125 9.03962 13.265 7.89825 11.9525C6.75689 10.64 6.19381 8.995 6.19381 7C6.19381 5.005 6.75689 3.36 7.89825 2.0475C9.03962 0.735 10.4701 0.0525 12.1746 0ZM24.3491 31.5C26.3672 31.5 28.3026 30.5781 29.7296 28.9372C31.1566 27.2962 31.9582 25.0706 31.9582 22.75C31.9582 20.4293 31.1566 18.2038 29.7296 16.5628C28.3026 14.9219 26.3672 14 24.3491 14C22.3311 14 20.3957 14.9219 18.9687 16.5628C17.5417 18.2038 16.74 20.4293 16.74 22.75C16.74 25.0706 17.5417 27.2962 18.9687 28.9372C20.3957 30.5781 22.3311 31.5 24.3491 31.5ZM22.8273 17.5H25.11V22.435L28.8233 24.9025L27.6819 27.1775L22.8273 23.9575V17.5Z" fill="#DC2626"/>
</svg>
