<svg width="21" height="24" viewBox="0 0 21 24" fill="none" xmlns="http://www.w3.org/2000/svg">
<path d="M2.625 24C1.90312 24 1.28537 23.7764 0.77175 23.3291C0.258125 22.8819 0.000875 22.3436 0 21.7143V10.2857C0 9.65714 0.25725 9.11924 0.77175 8.672C1.28625 8.22476 1.904 8.00076 2.625 8H3.9375V5.71429C3.9375 4.13333 4.57756 2.78591 5.85769 1.672C7.13781 0.558096 8.68525 0.000762685 10.5 7.80107e-07C12.3147 -0.000761125 13.8626 0.556572 15.1436 1.672C16.4246 2.78743 17.0642 4.13486 17.0625 5.71429V8H18.375C19.0969 8 19.7151 8.224 20.2296 8.672C20.7441 9.12 21.0009 9.65791 21 10.2857V21.7143C21 22.3429 20.7432 22.8811 20.2296 23.3291C19.7159 23.7771 19.0977 24.0008 18.375 24H2.625ZM10.5 18.2857C11.2219 18.2857 11.8401 18.0621 12.3546 17.6149C12.8691 17.1676 13.1259 16.6293 13.125 16C13.1241 15.3707 12.8673 14.8328 12.3546 14.3863C11.8418 13.9398 11.2236 13.7158 10.5 13.7143C9.77637 13.7128 9.15862 13.9368 8.64675 14.3863C8.13487 14.8358 7.87762 15.3737 7.875 16C7.87237 16.6263 8.12962 17.1646 8.64675 17.6149C9.16387 18.0651 9.78162 18.2888 10.5 18.2857ZM6.5625 8H14.4375V5.71429C14.4375 4.76191 14.0547 3.95238 13.2891 3.28572C12.5234 2.61905 11.5937 2.28572 10.5 2.28572C9.40625 2.28572 8.47656 2.61905 7.71094 3.28572C6.94531 3.95238 6.5625 4.76191 6.5625 5.71429V8Z" fill="#DC2626"/>
</svg>
