<svg width="22" height="21" viewBox="0 0 22 21" fill="none" xmlns="http://www.w3.org/2000/svg">
<path d="M4.33334 17.3333L1.84167 19.825C1.49861 20.1681 1.10572 20.245 0.663002 20.0558C0.22028 19.8665 -0.000720458 19.5278 1.76439e-06 19.0396V2.16667C1.76439e-06 1.57083 0.212335 1.06094 0.637002 0.637C1.06167 0.213056 1.57156 0.000722222 2.16667 0H19.5C20.0958 0 20.6061 0.212333 21.0308 0.637C21.4554 1.06167 21.6674 1.57156 21.6667 2.16667V15.1667C21.6667 15.7625 21.4547 16.2728 21.0308 16.6974C20.6068 17.1221 20.0966 17.3341 19.5 17.3333H4.33334ZM10.8333 14.0833C11.1403 14.0833 11.3978 13.9793 11.6058 13.7713C11.8138 13.5633 11.9174 13.3062 11.9167 13C11.9159 12.6938 11.8119 12.4367 11.6047 12.2287C11.3974 12.0207 11.1403 11.9167 10.8333 11.9167C10.5264 11.9167 10.2693 12.0207 10.062 12.2287C9.85472 12.4367 9.75072 12.6938 9.75 13C9.74928 13.3062 9.85328 13.5637 10.062 13.7724C10.2707 13.9811 10.5278 14.0848 10.8333 14.0833ZM10.8333 9.75C11.1403 9.75 11.3978 9.646 11.6058 9.438C11.8138 9.23 11.9174 8.97289 11.9167 8.66667V4.33333C11.9167 4.02639 11.8127 3.76928 11.6047 3.562C11.3967 3.35472 11.1396 3.25072 10.8333 3.25C10.5271 3.24928 10.27 3.35328 10.062 3.562C9.854 3.77072 9.75 4.02783 9.75 4.33333V8.66667C9.75 8.97361 9.854 9.23108 10.062 9.43908C10.27 9.64708 10.5271 9.75072 10.8333 9.75Z" fill="#CA2323"/>
</svg>
