<svg width="27" height="27" viewBox="0 0 27 27" fill="none" xmlns="http://www.w3.org/2000/svg">
<path fill-rule="evenodd" clip-rule="evenodd" d="M22.9974 15.9729V6.26176C22.9974 5.61788 22.7197 5.00036 22.2255 4.54506C21.7313 4.08977 21.0609 3.83398 20.362 3.83398H4.54948C3.85052 3.83398 3.18019 4.08977 2.68596 4.54506C2.19172 5.00036 1.91406 5.61788 1.91406 6.26176V15.9729C1.91406 16.6168 2.19172 17.2343 2.68596 17.6896C3.18019 18.1449 3.85052 18.4007 4.54948 18.4007H8.5026L12.4557 22.0423L16.4089 18.4007H20.362C21.0609 18.4007 21.7313 18.1449 22.2255 17.6896C22.7197 17.2343 22.9974 16.6168 22.9974 15.9729ZM5.86719 8.68954C5.86719 8.3676 6.00602 8.05884 6.25314 7.83119C6.50025 7.60354 6.83542 7.47565 7.1849 7.47565H17.7266C18.076 7.47565 18.4112 7.60354 18.6583 7.83119C18.9054 8.05884 19.0443 8.3676 19.0443 8.68954C19.0443 9.01148 18.9054 9.32024 18.6583 9.54789C18.4112 9.77554 18.076 9.90343 17.7266 9.90343H7.1849C6.83542 9.90343 6.50025 9.77554 6.25314 9.54789C6.00602 9.32024 5.86719 9.01148 5.86719 8.68954ZM7.1849 12.3312C6.83542 12.3312 6.50025 12.4591 6.25314 12.6867C6.00602 12.9144 5.86719 13.2232 5.86719 13.5451C5.86719 13.867 6.00602 14.1758 6.25314 14.4034C6.50025 14.6311 6.83542 14.759 7.1849 14.759H11.138C11.4875 14.759 11.8227 14.6311 12.0698 14.4034C12.3169 14.1758 12.4557 13.867 12.4557 13.5451C12.4557 13.2232 12.3169 12.9144 12.0698 12.6867C11.8227 12.4591 11.4875 12.3312 11.138 12.3312H7.1849Z" fill="#D72B1C"/>
</svg>
