<svg width="21" height="19" viewBox="0 0 21 19" fill="none" xmlns="http://www.w3.org/2000/svg">
<path d="M18.2042 4.96748L12.6842 1.44123C11.1796 0.478726 8.87 0.531226 7.42292 1.55498L2.62167 4.97623C1.66333 5.65873 0.90625 7.05873 0.90625 8.16123V14.1987C0.90625 16.43 2.89 18.25 5.33375 18.25H15.6646C18.1083 18.25 20.0921 16.4387 20.0921 14.2075V8.27498C20.0921 7.09373 19.2583 5.64123 18.2042 4.96748ZM11.2179 14.75C11.2179 15.1087 10.8921 15.4062 10.4992 15.4062C10.1063 15.4062 9.78042 15.1087 9.78042 14.75V12.125C9.78042 11.7662 10.1063 11.4687 10.4992 11.4687C10.8921 11.4687 11.2179 11.7662 11.2179 12.125V14.75Z" fill="white"/>
</svg>
